<?xml version="1.0" encoding="UTF-8" standalone="no"?>
<!-- Created with Inkscape (http://www.inkscape.org/) -->

<svg
   xmlns:dc="http://purl.org/dc/elements/1.1/"
   xmlns:cc="http://creativecommons.org/ns#"
   xmlns:rdf="http://www.w3.org/1999/02/22-rdf-syntax-ns#"
   xmlns:svg="http://www.w3.org/2000/svg"
   xmlns="http://www.w3.org/2000/svg"
   xmlns:sodipodi="http://sodipodi.sourceforge.net/DTD/sodipodi-0.dtd"
   xmlns:inkscape="http://www.inkscape.org/namespaces/inkscape"
   width="745"
   height="745"
   id="svg2"
   version="1.1"
   inkscape:version="0.48.3.1 r9886"
   sodipodi:docname="New document 1">
  <defs
     id="defs4" />
  <sodipodi:namedview
     id="base"
     pagecolor="#000000"
     bordercolor="#666666"
     borderopacity="1.0"
     inkscape:pageopacity="1"
     inkscape:pageshadow="2"
     inkscape:zoom="0.7"
     inkscape:cx="102.85714"
     inkscape:cy="520"
     inkscape:document-units="px"
     inkscape:current-layer="layer1"
     showgrid="false"
     inkscape:window-width="1600"
     inkscape:window-height="876"
     inkscape:window-x="0"
     inkscape:window-y="24"
     inkscape:window-maximized="1" />
  <metadata
     id="metadata7">
    <rdf:RDF>
      <cc:Work
         rdf:about="">
        <dc:format>image/svg+xml</dc:format>
        <dc:type
           rdf:resource="http://purl.org/dc/dcmitype/StillImage" />
        <dc:title></dc:title>
      </cc:Work>
    </rdf:RDF>
  </metadata>
  <g
     inkscape:label="Layer 1"
     inkscape:groupmode="layer"
     id="layer1"
     transform="translate(0,-307.36218)">
    <path
       style="fill:#ffffff;fill-opacity:1;fill-rule:nonzero;stroke:#f35c00;stroke-width:1.69872868;stroke-linecap:round;stroke-linejoin:round;stroke-miterlimit:4;stroke-opacity:1;stroke-dasharray:1.69872864, 13.58982912;stroke-dashoffset:1.35898291"
       id="path2987"
       d="m 166.53007,433.91896 c 7.08418,18.9775 21.85826,32.57454 33.76837,48.30987 8.353,12.77491 17.6742,24.60982 27.42403,36.30388 9.92379,11.23255 18.87686,23.29379 29.01767,34.32104 11.4052,9.41852 21.25388,20.28753 30.72402,31.59906 9.72833,13.36953 22.65699,23.96436 36.36808,32.96763 9.17642,6.57971 18.61665,12.69489 27.86871,19.1628 9.17614,7.80836 20.35788,13.42365 27.53307,23.2988 5.02766,11.00451 -0.95069,18.3342 -9.05323,25.22755 -14.88071,13.73222 -27.88801,29.51344 -40.99757,44.95614 -15.18313,20.81178 -36.20119,35.38826 -56.03302,51.23309 -9.23546,7.87801 -19.77283,14.08539 -28.03416,23.09549 -2.49264,2.71856 -9.20232,11.28612 -11.41652,14.07715 -9.09324,11.03221 -15.70105,23.78471 -22.58041,36.25774 -4.70489,10.74158 -10.62963,21.29476 -13.54474,32.73594 -51.02694,21.85628 -63.43892,52.59038 -66.9782,22.65347 -1.11679,-9.44633 -0.66035,-19.14517 -0.60645,-28.63137 0.25508,-19.07063 -2.07606,-38.04563 -2.95465,-57.08238 -0.86701,-29.36196 -0.77026,-58.74077 -1.10068,-88.11146 -0.3215,-21.24448 -0.28379,-42.49079 -0.43057,-63.73648 -0.003,-16.10983 -0.0118,-32.21904 -0.11299,-48.32862 -0.10927,-13.53167 0.0208,-27.0636 0.0176,-40.59536 0.002,-13.22216 -0.04,-26.44409 -0.0969,-39.66615 -0.0315,-7.04208 -0.0473,-14.08422 -0.0598,-21.12637 0,0 63.96404,-32.77031 63.96404,-32.77031 l 0,0 c -0.0119,7.06252 -0.0283,14.12504 -0.0596,21.1875 -0.0568,13.2551 -0.0989,26.51007 -0.0966,39.76527 -0.003,13.52674 0.12757,27.05364 0.0152,40.58027 -0.10588,16.15544 -0.12333,32.31059 -0.14891,48.46629 -0.17249,21.37051 -0.17237,42.74186 -0.37128,64.1123 -0.10706,29.18861 0.0707,58.39195 1.43667,87.55361 1.09697,19.08058 3.32399,38.11322 3.52157,57.22009 0.0195,7.32773 -0.0188,14.66439 0.28039,21.98795 1.35417,33.1494 11.59795,7.4831 -62.96865,44.45825 0.6569,-0.0933 1.51043,0.20022 1.97071,-0.28019 4.79539,-5.00504 8.4532,-24.44984 13.20534,-30.89016 6.33963,-13.12521 13.73766,-25.92155 22.29947,-37.68993 7.48273,-9.25471 13.87071,-19.72853 23.31786,-27.18579 2.37107,-1.87163 5.07082,-3.28401 7.51636,-5.05611 2.89044,-2.09447 5.65559,-4.35844 8.48339,-6.53767 19.44099,-15.90672 41.36872,-29.11491 56.17922,-49.94059 13.43403,-15.13136 26.40072,-30.69689 39.80204,-45.79892 4.99634,-3.88594 14.76953,-7.94947 13.77958,-15.33423 -6.6313,-9.11846 -17.64768,-14.20229 -26.18906,-21.27279 -9.2615,-6.3425 -18.37794,-12.84603 -27.52158,-19.35038 -13.8323,-9.87927 -27.00376,-20.98207 -37.42325,-34.54541 -9.55991,-11.05791 -19.22986,-21.92898 -30.31502,-31.51321 -10.26108,-11.10021 -19.64489,-22.97689 -29.45778,-34.47726 -9.81777,-11.80645 -18.94845,-23.91921 -27.42545,-36.75276 -11.90624,-16.2314 -26.32029,-30.58174 -34.87868,-49.15388 0,0 62.36276,-35.7034 62.36276,-35.7034 z"
       inkscape:connector-curvature="0" />
    <path
       style="fill:#ffffff;fill-opacity:1;fill-rule:nonzero;stroke:#f35c00;stroke-width:1.69872868;stroke-linecap:round;stroke-linejoin:round;stroke-miterlimit:4;stroke-opacity:1;stroke-dasharray:1.69872864, 13.58982912;stroke-dashoffset:1.35898291"
       id="path2987-9"
       d="m 456.25815,432.99388 c 7.08418,18.97751 21.85825,32.57454 33.76837,48.30987 8.35299,12.77491 17.67419,24.60982 27.42403,36.30388 9.92378,11.23255 18.87686,23.29379 29.01767,34.32104 11.40519,9.41853 21.25388,20.28753 30.72402,31.59906 9.72832,13.36953 22.65699,23.96436 36.36808,32.96764 9.17642,6.5797 18.61665,12.69488 27.86871,19.1628 9.17613,7.80836 20.35788,13.42364 27.53306,23.29879 5.02767,11.00451 -0.95068,18.33421 -9.05323,25.22756 -14.8807,13.73221 -27.888,29.51343 -40.99756,44.95614 -15.18313,20.81178 -36.20119,35.38826 -56.03302,51.23308 -9.23547,7.87802 -19.77283,14.0854 -28.03416,23.0955 -2.49264,2.71855 -9.20232,11.28611 -11.41652,14.07715 -9.09325,11.03221 -15.70105,23.7847 -22.58042,36.25774 -4.70489,10.74158 -10.62962,21.29476 -13.54473,32.73593 -51.02694,21.85628 -63.43893,52.59038 -66.9782,22.65347 -1.11679,-9.44632 -0.66036,-19.14517 -0.60645,-28.63137 0.25508,-19.07063 -2.07607,-38.04563 -2.95465,-57.08238 -0.86703,-29.36195 -0.77027,-58.74077 -1.1007,-88.11145 -0.3215,-21.24448 -0.28377,-42.4908 -0.43055,-63.73648 -0.003,-16.10984 -0.0119,-32.21904 -0.11299,-48.32863 -0.10927,-13.53167 0.0208,-27.0636 0.0176,-40.59536 0.002,-13.22215 -0.04,-26.44408 -0.0969,-39.66615 -0.0315,-7.04207 -0.0473,-14.08422 -0.0598,-21.12636 0,0 63.96404,-32.77031 63.96404,-32.77031 l 0,0 c -0.0119,7.06251 -0.0283,14.12503 -0.0596,21.1875 -0.0567,13.25509 -0.0989,26.51007 -0.0966,39.76527 -0.003,13.52673 0.12756,27.05364 0.0152,40.58027 -0.10588,16.15543 -0.12332,32.31058 -0.1489,48.46629 -0.1725,21.37051 -0.17238,42.74185 -0.37128,64.11229 -0.10707,29.18862 0.0706,58.39195 1.43667,87.55362 1.09697,19.08057 3.32399,38.11322 3.52157,57.22008 0.0195,7.32773 -0.0188,14.66439 0.28039,21.98795 1.35416,33.1494 11.59794,7.4831 -62.96865,44.45826 0.6569,-0.0933 1.51043,0.20021 1.97071,-0.28019 4.79539,-5.00505 8.4532,-24.44984 13.20534,-30.89016 6.33963,-13.12522 13.73766,-25.92156 22.29947,-37.68993 7.48273,-9.25471 13.8707,-19.72853 23.31786,-27.18579 2.37107,-1.87163 5.07081,-3.28401 7.51636,-5.05612 2.89044,-2.09446 5.65559,-4.35844 8.48339,-6.53766 19.44098,-15.90673 41.36872,-29.11491 56.17922,-49.94059 13.43402,-15.13136 26.40072,-30.6969 39.80203,-45.79893 4.99634,-3.88593 14.76954,-7.94947 13.77959,-15.33423 -6.6313,-9.11845 -17.64769,-14.20228 -26.18907,-21.27279 -9.2615,-6.34249 -18.37793,-12.84602 -27.52157,-19.35037 -13.83231,-9.87928 -27.00377,-20.98207 -37.42326,-34.54541 -9.55991,-11.05792 -19.22985,-21.92899 -30.31501,-31.51321 -10.26108,-11.10021 -19.64489,-22.97689 -29.45778,-34.47726 -9.81777,-11.80645 -18.94845,-23.91922 -27.42546,-36.75276 -11.90623,-16.23141 -26.32028,-30.58175 -34.87867,-49.15388 0,0 62.36276,-35.70341 62.36276,-35.70341 z"
       inkscape:connector-curvature="0" />
  </g>
</svg>
